:SAMPLES-PER-SECOND 24
:FULLY-SPECIFIED
:DEGREES
188
root  -7.39772 41.3739 31.2648 -141.489 31.3766 -130.452
RightUpLeg  -59.9606 1.27507 -37.1198
RightLeg  107.09 -0.665917 3.06526
RightFoot  -20.9543 -0.0301473 1.37236
RightToes  -2.08645e-008 3.77894e-005 6.81332e-007
Spine  24.1039 -2.73471 1.8356
Spine1  -3.11197 -7.70945 33.2988
HEad  -35.2101 -49.7314 24.5862
LeftShoulder1  4.94576 -11.8018 -26.1875
LeftArm  26.4643 -37.7946 -52.7981
LeftForeArm  125.444 -80.3504 -106.721
LeftHand  -0.707018 -4.59001 8.49497
RightShoulder  2.99909 5.91591 25.7957
RightArm  31.8052 -1.88495 24.9531
RightForeArm  164.694 72.8963 147.945
RightHand  -0.295662 9.30631 -2.72231
LeftUpLeg  -10.2202 19.4508 28.4962
LeftLeg  8.7188 24.3132 4.79722
LeftFoot  -7.52801 -0.033694 2.20785
LeftToes  1.24767e-006 1.47042e-008 1.32732e-009
189
root  -7.64878 42.1016 30.1247 -131.839 36.2525 -121.745
RightUpLeg  -53.0326 2.70213 -46.4091
RightLeg  105.231 2.17887 -5.81753
RightFoot  -19.3236 -0.318081 -2.65579
RightToes  -2.08645e-008 3.77894e-005 6.81332e-007
Spine  21.3441 -2.73428 5.78673
Spine1  -3.91353 -6.83101 33.3069
HEad  -34.7799 -55 25.844
LeftShoulder1  4.76326 -11.5112 -25.5809
LeftArm  23.4461 -25.3465 -43.095
LeftForeArm  153.549 -76.4199 -137.083
LeftHand  -0.585477 -3.55917 7.85325
RightShoulder  2.87872 5.68862 25.2524
RightArm  36.0348 2.71812 24.9884
RightForeArm  166.408 72.0894 149.665
RightHand  -0.00376675 10.2405 -0.44436
LeftUpLeg  -6.14147 20.9853 31.1651
LeftLeg  3.85311 31.2654 3.04793
LeftFoot  -1.95565 -0.00508421 0.229859
LeftToes  1.24767e-006 1.47042e-008 1.32732e-009
190
root  -7.60752 42.8267 29.2613 -122.936 39.5627 -113.922
RightUpLeg  -44.4314 3.24848 -50.6209
RightLeg  97.4148 2.77467 -14.4961
RightFoot  -14.74 -0.29232 -6.49142
RightToes  -2.08645e-008 3.77894e-005 6.81332e-007
Spine  18.1568 -1.98306 5.90642
Spine1  -2.65893 -7.17293 36.4137
HEad  -36.4771 -59.7031 29.4735
LeftShoulder1  5.14266 -11.8749 -27.3565
LeftArm  23.3451 -10.9536 -32.8582
LeftForeArm  161.785 -72.0005 -149.141
LeftHand  -0.530771 -3.31554 7.32515
RightShoulder  2.74354 5.39777 24.733
RightArm  37.5888 6.67944 25.8662
RightForeArm  165.123 72.3307 149.051
RightHand  0.374475 11.1949 2.18474
LeftUpLeg  -4.17645 20.9256 33.0505
LeftLeg  3.71339 34.5422 4.08049
LeftFoot  3.62384 0.4486 -3.58347
LeftToes  1.24767e-006 1.47042e-008 1.32732e-009
191
root  -7.4909 43.1628 28.5619 -114.128 43.0012 -106.503
RightUpLeg  -35.349 0.217279 -52.7338
RightLeg  80.6184 -1.99513 -17.3573
RightFoot  -10.8819 -0.0443255 -8.4065
RightToes  -2.08645e-008 3.77894e-005 6.81332e-007
Spine  14.9424 -1.73898 5.81185
Spine1  -0.96191 -7.66325 36.2919
HEad  -34.6561 -61.1926 30.6716
LeftShoulder1  5.22502 -11.851 -27.9635
LeftArm  25.1727 4.39315 -24.5971
LeftForeArm  163.115 -69.8871 -152.652
LeftHand  -0.372663 -4.1105 4.83442
RightShoulder  2.7638 5.35008 25.1478
RightArm  36.7015 6.89114 27.2116
RightForeArm  163.99 72.9394 147.757
RightHand  0.785463 12.4299 4.66132
LeftUpLeg  -2.78774 19.1721 33.8035
LeftLeg  6.77035 28.3829 5.83132
LeftFoot  6.2098 0.65775 -4.51814
LeftToes  1.24767e-006 1.47042e-008 1.32732e-009
192
root  -7.3072 43.0736 28.0499 -103.094 46.6028 -96.2927
RightUpLeg  -27.8726 -4.58019 -53.2828
RightLeg  54.7172 -8.54801 -13.465
RightFoot  -10.3009 -0.0132858 -5.70179
RightToes  -2.08645e-008 3.77894e-005 6.81332e-007
Spine  11.6287 -0.851902 6.71336
Spine1  1.6201 -6.76157 31.9334
HEad  -32.1113 -59.9989 29.7977
LeftShoulder1  5.23782 -11.7946 -28.1799
LeftArm  26.8741 17.3095 -18.8802
LeftForeArm  160.483 -70.3933 -151.532
LeftHand  -0.164398 -4.92294 2.15035
RightShoulder  2.73734 5.20078 25.3919
RightArm  34.071 4.02094 27.6288
RightForeArm  165.538 72.2414 149.254
RightHand  0.56498 11.5374 3.40215
LeftUpLeg  0.132578 11.1597 33.7531
LeftLeg  10.3586 17.9201 6.06612
LeftFoot  5.27824 0.519614 -3.7686
LeftToes  1.24767e-006 1.47042e-008 1.32732e-009
193
root  -7.08406 42.4902 27.6829 -85.9001 48.1853 -80.0274
RightUpLeg  -25.6757 -5.52527 -51.9799
RightLeg  26.8401 -16.1899 -7.9615
RightFoot  -9.25739 -0.0559685 -0.604165
RightToes  -2.08645e-008 3.77894e-005 6.81332e-007
Spine  8.30112 1.15844 9.32497
Spine1  4.52785 -3.71209 25.6765
HEad  -30.8134 -57.0489 28.1875
LeftShoulder1  5.46862 -12.0243 -29.1812
LeftArm  26.6566 27.9544 -15.5528
LeftForeArm  156.148 -71.8243 -148.592
LeftHand  -0.177554 -4.91651 2.29083
RightShoulder  2.74528 5.07487 25.9745
RightArm  31.0113 1.77232 26.3639
RightForeArm  166.212 71.0007 151.414
RightHand  0.342776 10.1848 2.13624
LeftUpLeg  3.62137 0.334159 32.4375
LeftLeg  14.3556 12.8429 4.70033
LeftFoot  -0.341767 0.420127 -4.44211
LeftToes  1.24767e-006 1.47042e-008 1.32732e-009
194
root  -7.01576 41.5835 27.4578 -66.2581 45.5168 -62.319
RightUpLeg  -31.8441 -19.3198 -36.7396
RightLeg  5.37357 -7.58159 -8.23961
RightFoot  -7.45465 -0.0827149 0.946942
RightToes  -2.08645e-008 3.77894e-005 6.81332e-007
Spine  6.22408 2.57312 11.5067
Spine1  6.04898 -0.701454 19.8437
HEad  -27.7791 -50.6614 24.1319
LeftShoulder1  5.80262 -12.2596 -30.8005
LeftArm  22.6034 39.1371 -15.808
LeftForeArm  153.553 -72.4021 -147.144
LeftHand  -0.353239 -3.73779 4.7562
RightShoulder  2.90794 5.26327 27.1865
RightArm  28.631 3.84384 26.0251
RightForeArm  162.767 72.0881 149.123
RightHand  0.17869 9.88096 0.946
LeftUpLeg  6.1895 1.95805 30.432
LeftLeg  15.5356 12.2429 4.36056
LeftFoot  -7.40226 0.148812 -3.03712
LeftToes  1.24767e-006 1.47042e-008 1.32732e-009
